<mxfile host="65bd71144e">
    <diagram id="lhCFNLX7x3FErVzATT6z" name="Page-1">
        <mxGraphModel dx="587" dy="635" grid="1" gridSize="10" guides="1" tooltips="1" connect="1" arrows="1" fold="1" page="1" pageScale="1" pageWidth="827" pageHeight="1169" math="0" shadow="0">
            <root>
                <mxCell id="0"/>
                <mxCell id="1" parent="0"/>
                <mxCell id="duD0OscKRhEGUbKgNiGc-11" value="" style="group" parent="1" vertex="1" connectable="0">
                    <mxGeometry x="100" y="20" width="691.94" height="564.5" as="geometry"/>
                </mxCell>
                <mxCell id="duD0OscKRhEGUbKgNiGc-1" value="" style="shape=image;verticalLabelPosition=bottom;labelBackgroundColor=#ffffff;verticalAlign=top;aspect=fixed;imageAspect=0;image=https://res.cloudinary.com/practicaldev/image/fetch/s--r1TEE8kz--/c_limit%2Cf_auto%2Cfl_progressive%2Cq_auto%2Cw_880/https://www.devaradise.com/wp-content/uploads/2020/09/react-calculator-1-1024x489.jpg;sketch=1;" parent="duD0OscKRhEGUbKgNiGc-11" vertex="1">
                    <mxGeometry y="100" width="691.94" height="330" as="geometry"/>
                </mxCell>
                <mxCell id="duD0OscKRhEGUbKgNiGc-4" value="" style="endArrow=classic;html=1;" parent="duD0OscKRhEGUbKgNiGc-11" edge="1">
                    <mxGeometry width="50" height="50" relative="1" as="geometry">
                        <mxPoint x="160" y="20" as="sourcePoint"/>
                        <mxPoint x="110" y="190" as="targetPoint"/>
                    </mxGeometry>
                </mxCell>
                <mxCell id="duD0OscKRhEGUbKgNiGc-5" value="Buttons for Numbers and Operations" style="text;html=1;align=center;verticalAlign=middle;resizable=0;points=[];autosize=1;strokeColor=none;" parent="duD0OscKRhEGUbKgNiGc-11" vertex="1">
                    <mxGeometry x="75" width="210" height="20" as="geometry"/>
                </mxCell>
                <mxCell id="duD0OscKRhEGUbKgNiGc-6" value="Somewhere to display the current number" style="text;html=1;align=center;verticalAlign=middle;resizable=0;points=[];autosize=1;strokeColor=none;" parent="duD0OscKRhEGUbKgNiGc-11" vertex="1">
                    <mxGeometry x="420" y="10" width="240" height="20" as="geometry"/>
                </mxCell>
                <mxCell id="duD0OscKRhEGUbKgNiGc-7" value="Main Operations" style="text;html=1;align=center;verticalAlign=middle;resizable=0;points=[];autosize=1;strokeColor=none;" parent="duD0OscKRhEGUbKgNiGc-11" vertex="1">
                    <mxGeometry x="560" y="440" width="100" height="20" as="geometry"/>
                </mxCell>
                <mxCell id="duD0OscKRhEGUbKgNiGc-8" value="&lt;div&gt;Simple Requirements&lt;/div&gt;&lt;div&gt;&lt;br&gt;&lt;/div&gt;&lt;div&gt;Want a Calculator that lets the user type in some numbers and displays them &lt;br&gt;&lt;/div&gt;" style="text;html=1;align=center;verticalAlign=middle;resizable=0;points=[];autosize=1;strokeColor=none;" parent="duD0OscKRhEGUbKgNiGc-11" vertex="1">
                    <mxGeometry x="20" y="470" width="420" height="50" as="geometry"/>
                </mxCell>
                <mxCell id="duD0OscKRhEGUbKgNiGc-9" value="Want a Calculator that can add two numbers together" style="text;html=1;align=center;verticalAlign=middle;resizable=0;points=[];autosize=1;strokeColor=none;" parent="duD0OscKRhEGUbKgNiGc-11" vertex="1">
                    <mxGeometry x="30" y="520" width="300" height="20" as="geometry"/>
                </mxCell>
                <mxCell id="duD0OscKRhEGUbKgNiGc-10" value="Want a Calculator that can clear its display" style="text;html=1;align=center;verticalAlign=middle;resizable=0;points=[];autosize=1;strokeColor=none;" parent="duD0OscKRhEGUbKgNiGc-11" vertex="1">
                    <mxGeometry x="40" y="544.5" width="240" height="20" as="geometry"/>
                </mxCell>
                <mxCell id="2" value="&lt;b&gt;&lt;font style=&quot;font-size: 48px&quot;&gt;1&lt;/font&gt;&lt;/b&gt;" style="whiteSpace=wrap;html=1;aspect=fixed;" parent="1" vertex="1">
                    <mxGeometry x="450" y="730" width="80" height="80" as="geometry"/>
                </mxCell>
                <mxCell id="3" value="Calculator Component" style="text;html=1;align=center;verticalAlign=middle;resizable=0;points=[];autosize=1;strokeColor=none;" parent="1" vertex="1">
                    <mxGeometry x="425" y="690" width="130" height="20" as="geometry"/>
                </mxCell>
                <mxCell id="4" value="Needs to have the number &lt;br&gt;it is storing passed to it&amp;nbsp;" style="text;html=1;align=center;verticalAlign=middle;resizable=0;points=[];autosize=1;strokeColor=none;" parent="1" vertex="1">
                    <mxGeometry x="560" y="730" width="160" height="30" as="geometry"/>
                </mxCell>
                <mxCell id="5" value="Needs to have an onClick event method that does something &lt;br&gt;with the display when the button is clicked" style="text;html=1;align=center;verticalAlign=middle;resizable=0;points=[];autosize=1;strokeColor=none;" parent="1" vertex="1">
                    <mxGeometry x="550" y="770" width="340" height="30" as="geometry"/>
                </mxCell>
                <mxCell id="6" value="Append a number to the display" style="text;html=1;align=center;verticalAlign=middle;resizable=0;points=[];autosize=1;strokeColor=none;" parent="1" vertex="1">
                    <mxGeometry x="530" y="50" width="180" height="20" as="geometry"/>
                </mxCell>
                <mxCell id="7" value="Append a number to the display" style="text;html=1;align=center;verticalAlign=middle;resizable=0;points=[];autosize=1;strokeColor=none;" parent="1" vertex="1">
                    <mxGeometry x="540" y="60" width="180" height="20" as="geometry"/>
                </mxCell>
                <mxCell id="8" value="Append a Number to a Display" style="text;html=1;align=center;verticalAlign=middle;resizable=0;points=[];autosize=1;strokeColor=none;" parent="1" vertex="1">
                    <mxGeometry x="110" y="670" width="180" height="20" as="geometry"/>
                </mxCell>
                <mxCell id="9" value="What test do I need to write?&amp;nbsp;" style="text;html=1;align=center;verticalAlign=middle;resizable=0;points=[];autosize=1;strokeColor=none;" parent="1" vertex="1">
                    <mxGeometry x="110" y="700" width="170" height="20" as="geometry"/>
                </mxCell>
                <mxCell id="10" value="What would my test want to check in the logic&amp;nbsp;" style="text;html=1;align=center;verticalAlign=middle;resizable=0;points=[];autosize=1;strokeColor=none;" parent="1" vertex="1">
                    <mxGeometry x="110" y="720" width="260" height="20" as="geometry"/>
                </mxCell>
                <mxCell id="11" value="Needs to check that when an append method is called, &lt;br&gt;it returns an array of length + 1" style="text;html=1;align=center;verticalAlign=middle;resizable=0;points=[];autosize=1;strokeColor=none;" parent="1" vertex="1">
                    <mxGeometry x="80" y="740" width="310" height="30" as="geometry"/>
                </mxCell>
                <mxCell id="12" value="Check the array contains the element that was added" style="text;html=1;align=center;verticalAlign=middle;resizable=0;points=[];autosize=1;strokeColor=none;" parent="1" vertex="1">
                    <mxGeometry x="60" y="775" width="300" height="20" as="geometry"/>
                </mxCell>
                <mxCell id="13" value="Will need to check an array/string that stores the display &lt;br&gt;contains the items (but this is already covered in my feature test, &lt;br&gt;so don't need in my component?)" style="text;html=1;align=center;verticalAlign=middle;resizable=0;points=[];autosize=1;strokeColor=none;" parent="1" vertex="1">
                    <mxGeometry x="50" y="795" width="360" height="50" as="geometry"/>
                </mxCell>
                <mxCell id="14" value="Clear Button&amp;nbsp;" style="text;html=1;align=center;verticalAlign=middle;resizable=0;points=[];autosize=1;strokeColor=none;" vertex="1" parent="1">
                    <mxGeometry x="425" y="870" width="90" height="20" as="geometry"/>
                </mxCell>
                <mxCell id="15" value="As a user, &lt;br&gt;So I can calculate correctly,&amp;nbsp;&lt;br&gt;I want to be able to clear my display." style="text;html=1;align=center;verticalAlign=middle;resizable=0;points=[];autosize=1;strokeColor=none;" vertex="1" parent="1">
                    <mxGeometry x="105" y="860" width="210" height="50" as="geometry"/>
                </mxCell>
            </root>
        </mxGraphModel>
    </diagram>
</mxfile>